<svg width="145" height="25" viewBox="0 0 145 25" fill="none" xmlns="http://www.w3.org/2000/svg">
<path d="M57.6996 13.8808C55.9348 13.8621 54.9314 13.8621 53.167 13.8621C51.7822 13.8621 50.9349 13.8621 49.62 13.8808L49.5849 13.7574C49.8797 13.5637 50.1217 13.1066 50.1217 12.5972V2.83373C50.1217 2.14763 49.9833 1.88392 49.5334 1.72623L49.62 1.53253C49.9319 1.56787 50.3122 1.56787 50.7447 1.56787C51.1772 1.56787 51.7481 1.56787 52.0596 1.53253L52.1118 1.72623C51.6966 1.91959 51.5406 2.2183 51.5406 2.72838V13.0013H55.6932C57.3888 13.0013 57.8734 12.6669 58.6689 11.8755L58.8417 12.0158C58.3574 12.6149 57.9075 13.4407 57.6996 13.8808Z" fill="#202020"/>
<path d="M66.2399 13.8811C65.8071 13.8458 65.3054 13.8458 64.8729 13.8458C64.3709 13.8458 63.8865 13.8458 63.437 13.8811L63.4022 13.7044C63.9039 13.4767 64.1462 13.2303 64.1462 12.6152V2.86874C64.1462 2.1833 63.9387 1.88425 63.4891 1.70856L63.5583 1.53253C63.9908 1.56787 64.4059 1.56787 64.8381 1.56787C65.271 1.56787 65.8074 1.56787 66.2055 1.53253L66.2743 1.69089C65.8415 1.86692 65.5651 2.1833 65.5651 2.74638V12.5972C65.5651 13.213 65.8241 13.4767 66.2917 13.7041L66.2399 13.8811Z" fill="#202020"/>
<path fill-rule="evenodd" clip-rule="evenodd" d="M74.7852 13.8776C75.2406 13.8875 75.7543 13.8987 76.3323 13.8987C80.2764 13.8987 83.1829 11.5593 83.1836 7.5837C83.1836 3.8548 80.156 1.51577 76.2808 1.51577C75.8746 1.51577 75.4876 1.52333 75.0768 1.53136C74.6121 1.54044 74.1171 1.55011 73.5294 1.55011C73.1139 1.55011 72.7162 1.53278 71.9898 1.49744L71.9207 1.67346C72.3187 1.86683 72.4912 2.20088 72.4912 2.76363V12.5795C72.4912 13.2129 72.2836 13.5289 71.9377 13.7577L72.0069 13.9163C72.098 13.9125 72.1834 13.9089 72.2642 13.9054C72.9198 13.8775 73.2669 13.8627 73.8058 13.8627C74.0973 13.8627 74.4228 13.8697 74.7852 13.8776ZM73.9102 2.34142C74.7234 2.30708 75.2428 2.30708 76.073 2.30708C79.4639 2.30708 81.6435 4.38273 81.6435 7.61956C81.6435 11.0851 79.7931 13.1074 76.4534 13.1074C75.6402 13.1074 74.706 13.0891 73.9102 13.0371V2.34142Z" fill="#202020"/>
<path d="M95.4643 13.8812C94.0278 13.8458 93.1978 13.8458 91.7613 13.8458C90.0142 13.8458 88.8383 13.8458 87.1083 13.8988L87.0388 13.7578C87.4365 13.5118 87.5923 13.1417 87.5923 12.4916V2.81612C87.5923 2.21837 87.4893 1.88431 87.0217 1.67328L87.0739 1.49726C88.7695 1.5856 89.3915 1.56827 91.0871 1.56827C92.6447 1.56827 94.1143 1.56827 95.6722 1.47992C95.4988 1.7783 95.2561 2.30638 95.1361 2.67577C94.9452 2.4644 94.5649 2.37672 93.4392 2.37672H89.0111V6.45768H90.8969C92.1594 6.45768 92.8696 6.42334 93.267 6.19464L93.3703 6.28199C93.1791 6.51069 92.9211 7.10845 92.7998 7.47817C92.4879 7.30248 91.8311 7.26714 90.8966 7.26714H89.0108V13.0367H92.7824C95.0318 13.0367 95.7057 12.6506 96.3808 11.9632L96.5366 12.0869C96.1051 12.632 95.6722 13.3887 95.4643 13.8812Z" fill="#202020"/>
<path fill-rule="evenodd" clip-rule="evenodd" d="M103.288 7.6538C105.606 12.1218 107.925 13.9868 110.659 13.9868C111.368 13.9868 111.731 13.8811 112.146 13.6691L112.043 13.4764C111.765 13.5991 111.523 13.6341 111.143 13.6341C108.945 13.6341 106.731 11.4004 105.053 7.54812C107.026 7.24941 108.548 6.24726 108.548 4.3823C108.548 2.44667 106.801 1.54953 104.69 1.54953C104.242 1.54953 103.76 1.55407 103.276 1.55864C102.787 1.56324 102.296 1.56787 101.835 1.56787C100.969 1.56787 100.312 1.56787 99.4477 1.53253L99.3959 1.69089C99.8792 1.95393 100.018 2.41167 100.018 2.79873V12.5796C100.018 13.1603 99.8444 13.529 99.4293 13.7224L99.4992 13.8811C100.001 13.8458 100.294 13.8458 100.779 13.8458C100.881 13.8458 100.974 13.845 101.062 13.8442C101.393 13.8414 101.657 13.8392 102.094 13.8811L102.18 13.6874C101.644 13.4587 101.436 13.1603 101.436 12.4392V7.6538H103.288ZM101.819 2.36983C102.653 2.35451 103.38 2.34115 104.344 2.34115C106.16 2.34115 107.026 3.01058 107.026 4.50548C107.026 6.12406 105.606 6.86217 103.91 6.86217C103.474 6.86217 103.059 6.85767 102.648 6.85321C102.246 6.84883 101.847 6.8445 101.436 6.8445V2.37682C101.567 2.37447 101.694 2.37213 101.819 2.36983Z" fill="#202020"/>
<path d="M0.00131162 17.5344C0.00131162 17.5344 1.57919 23.3716 45.1176 24.2467C85.8035 25.0649 98.4783 14.7859 121 19.9697C121 19.9697 116.017 16.9289 100.419 17.24C88.6802 17.475 62.9763 21.2283 42.3389 21.897C9.42336 22.9629 0 17.5677 0 17.5677L0.00131162 17.5344Z" fill="#006C4F"/>
<path fill-rule="evenodd" clip-rule="evenodd" d="M22.0782 1C24.0157 1 25.9809 0.998667 27.7542 1.17069L18.5351 7.19428L41.9729 7.20929C42.0742 7.77504 41.9479 8.32312 41.6653 8.8202L6.78003 8.83454L19.2634 1.06568C20.1835 1.02234 21.1226 1 22.0782 1Z" fill="white" stroke="white" stroke-width="0.1007"/>
<path fill-rule="evenodd" clip-rule="evenodd" d="M27.7639 1.17107C35.0952 2.0402 41.3589 4.50391 41.9704 7.21133L18.4245 7.19632L27.7639 1.17107ZM41.663 8.81066C39.8773 11.9148 31.7298 14.4669 21.9975 14.4669C10.9652 14.4669 1.96643 11.4394 1.96643 7.72616C1.96643 4.32664 9.51089 1.5012 19.252 1.04913L6.66893 8.82566L41.663 8.81066Z" fill="#006C4F"/>
<path d="M127.898 15.8098C127.752 15.9872 127.8 16.3199 127.994 16.4082C128.195 16.5436 128.418 16.2155 128.476 16.0935C128.849 15.3007 128.191 15.3857 127.898 15.8098Z" fill="#202020"/>
<path d="M141.533 16.1205C141.427 16.2655 141.231 16.3568 140.981 16.3378C140.66 16.3015 140.357 16.0661 139.983 16.0468C139.626 16.0291 139.322 16.3732 139.127 16.6815C139.055 16.8086 139.055 16.8632 139.091 16.8632C139.144 16.8992 139.199 16.8086 139.234 16.7902C139.376 16.6815 139.537 16.5365 139.805 16.5549C140.162 16.6085 140.446 16.8272 140.802 16.8452C141.178 16.8632 141.499 16.5002 141.641 16.1738C141.678 16.1021 141.678 16.0465 141.641 16.0288C141.605 16.0114 141.551 16.0661 141.533 16.1205Z" fill="#202020"/>
<path d="M125.453 18.011C125.453 17.6847 125.264 17.4543 125.17 17.4543C125.095 17.4543 125.207 17.5693 125.076 17.9337C124.717 18.8932 123.981 19.9693 123.056 21.1388C122.604 21.7143 121.942 22.3674 121.641 22.7314C121.829 22.386 121.999 21.9633 122.056 21.8103C122.376 20.9852 122.811 19.8527 122.868 18.8555C122.905 18.2031 122.66 17.779 122.188 17.779C121.829 17.779 121.508 17.9334 121.263 18.0687C121.037 18.2027 120.905 18.3941 120.923 18.4514C120.942 18.5088 121.074 18.3554 121.282 18.2401C121.376 18.1821 121.528 18.1444 121.622 18.1444C121.943 18.1444 122.132 18.4141 122.112 18.9115C122.075 19.6983 121.848 20.6208 121.546 21.5986C121.471 21.8103 121.339 22.2327 121.206 22.4821C121.057 22.6934 120.98 22.9045 120.98 23.1345C120.98 23.1915 121.018 23.4035 121.263 23.4415C121.414 23.4795 121.414 23.3845 121.489 23.2885C121.829 22.7498 122.622 22.06 123.415 21.1775C124.076 20.4477 124.68 19.7563 125.132 18.9889C125.322 18.6445 125.453 18.2984 125.453 18.011Z" fill="#202020"/>
<path d="M127.699 17.7222C127.491 17.8376 127.056 18.0296 126.792 18.1249C126.528 18.2026 126.528 18.2026 126.528 18.2593C126.528 18.3363 126.622 18.317 126.736 18.317C126.812 18.2976 126.943 18.2403 127.056 18.1823C126.699 18.7584 126.415 19.5072 126.075 20.3329C125.697 21.2734 125.452 22.1179 125.131 23.1534C125.017 23.4604 125.15 23.5571 125.319 23.5571C125.452 23.5761 125.622 23.3264 126.018 22.8847C126.226 22.6346 126.452 22.4046 126.755 22.1749C126.962 22.0215 127.056 22.0022 127.056 21.9455C127.056 21.8675 126.943 21.9252 126.905 21.9455C126.699 22.0409 126.283 22.3276 125.981 22.6163C126.189 21.9629 126.491 21.1381 126.793 20.3326C127.095 19.5638 127.453 18.7194 127.887 17.8949C128.019 17.6642 127.944 17.5879 127.699 17.7222Z" fill="#202020"/>
<path fill-rule="evenodd" clip-rule="evenodd" d="M132.333 21.541C132.37 21.5222 132.446 21.4846 132.464 21.5225C132.498 21.5732 132.457 21.594 132.393 21.6258C132.385 21.6296 132.378 21.6334 132.37 21.6375C132.218 21.7145 131.841 22.0226 131.596 22.2526L131.575 22.2737C131.227 22.6285 130.948 22.9128 130.633 23.3078C130.482 23.4801 130.312 23.6732 130.105 23.6341C129.935 23.6141 129.915 23.4418 130.01 23.2117C130.312 22.5596 130.898 21.0434 131.313 19.9299C130.841 20.774 130.256 21.5795 129.707 22.1559C129.198 22.7127 128.745 23.0394 128.425 23.0197C128.028 23.0007 127.859 22.6743 127.859 22.1756C127.859 21.7715 127.991 21.2341 128.236 20.6974C128.519 20.0639 129.01 19.3928 129.595 18.8727C130.18 18.298 130.86 17.8953 131.407 17.9143C131.784 17.9336 131.917 18.203 131.936 18.375C131.991 18.2597 132.087 18.0876 132.144 18.011C132.256 17.8569 132.332 17.7792 132.522 17.8189C132.709 17.8569 132.747 18.011 132.709 18.1063C132.653 18.2505 132.589 18.4114 132.521 18.5848C132.27 19.2194 131.953 20.0205 131.671 20.774C131.388 21.5412 130.974 22.425 130.653 23.0194C130.935 22.655 131.463 22.1179 131.671 21.9632C131.898 21.7709 132.162 21.5985 132.332 21.5412L132.333 21.541ZM128.632 22.6735C129.18 22.7122 130.349 21.2156 131.087 19.9861C131.388 19.507 131.615 18.9509 131.709 18.6816C131.842 18.3168 131.653 18.1058 131.369 18.1058C130.52 18.1058 129.481 19.5844 128.765 21.2336C128.595 21.618 128.445 22.0598 128.445 22.3855C128.445 22.5395 128.481 22.6735 128.632 22.6735Z" fill="#202020"/>
<path d="M136.273 17.6455C135.235 17.6652 134.121 18.9124 133.405 20.3716C133.084 21.044 132.913 21.8108 132.932 22.2335C132.932 22.7506 133.177 23.1354 133.649 23.2124C133.612 23.2894 133.536 23.346 133.461 23.4424C133.385 23.5381 133.271 23.6534 133.329 23.6911C133.367 23.7694 133.424 23.7304 133.649 23.7694C133.934 23.8065 134.065 24.0188 134.047 24.2095C133.989 24.5162 133.686 24.6709 133.329 24.6709C132.857 24.6709 132.479 24.4986 132.347 24.3442C132.309 24.3059 132.272 24.2872 132.254 24.3059C132.216 24.3442 132.234 24.4019 132.272 24.4599C132.386 24.6713 132.764 24.9583 133.348 24.997C134.084 25.0353 134.613 24.7089 134.631 24.2098C134.67 23.8068 134.31 23.5768 133.819 23.5197C133.726 23.5004 133.706 23.4614 133.745 23.4044C133.782 23.3654 133.857 23.2697 133.914 23.2124C134.273 23.1747 134.66 22.897 135.009 22.5223C135.649 21.8315 136.073 20.8483 135.927 20.826C135.868 20.816 135.479 21.7568 134.877 22.3869C134.503 22.7763 134.103 23.04 133.839 22.9447C133.706 22.886 133.63 22.751 133.63 22.4833C133.63 22.2532 133.706 21.8878 133.8 21.4858C134.273 19.7375 135.519 17.7035 136.255 17.8199C136.444 17.8389 136.405 18.1646 136.311 18.3379C136.293 18.4153 136.237 18.492 136.293 18.5303C136.331 18.6073 136.425 18.5303 136.5 18.492C136.671 18.376 136.821 18.2043 136.802 17.9729C136.783 17.7795 136.632 17.6455 136.273 17.6455Z" fill="#202020"/>
<path fill-rule="evenodd" clip-rule="evenodd" d="M140.598 18.011C140.711 17.8569 140.787 17.7792 140.976 17.8189C141.165 17.8569 141.202 18.011 141.165 18.107C141.118 18.2244 141.067 18.353 141.013 18.4904C140.756 19.1388 140.421 19.983 140.126 20.7747C139.843 21.5418 139.428 22.4256 139.107 23.0201C139.389 22.6557 139.918 22.1186 140.126 21.9639C140.353 21.7715 140.617 21.5992 140.787 21.5418L140.789 21.5409C140.827 21.5219 140.9 21.4858 140.919 21.5232C140.952 21.574 140.91 21.5948 140.847 21.6263C140.84 21.6299 140.832 21.6336 140.824 21.6375C140.674 21.7145 140.296 22.0226 140.049 22.2526C140.036 22.2662 140.023 22.2796 140.01 22.293C139.671 22.6389 139.396 22.92 139.087 23.3078C138.936 23.4801 138.766 23.6732 138.56 23.6341C138.389 23.6141 138.369 23.4418 138.464 23.2117C138.766 22.5596 139.351 21.0434 139.768 19.9299C139.296 20.774 138.71 21.5795 138.163 22.1559C137.652 22.7127 137.2 23.0394 136.879 23.0197C136.482 23.0007 136.313 22.6743 136.313 22.1756C136.313 21.7715 136.445 21.2341 136.691 20.6974C136.973 20.0639 137.465 19.3928 138.049 18.8727C138.635 18.298 139.314 17.8953 139.862 17.9143C140.238 17.9336 140.371 18.203 140.39 18.375C140.447 18.2597 140.54 18.0876 140.598 18.011ZM139.541 19.9861C139.843 19.507 140.069 18.9509 140.164 18.6816C140.296 18.3168 140.106 18.1058 139.823 18.1058C138.975 18.1058 137.936 19.5844 137.218 21.2336C137.05 21.618 136.897 22.0598 136.897 22.3855C136.897 22.5395 136.936 22.6735 137.086 22.6735C137.634 22.7122 138.805 21.2156 139.541 19.9861Z" fill="#202020"/>
<path d="M144.194 17.8079C144.035 17.6898 143.978 17.5998 143.825 17.6768C143.694 17.7342 143.656 17.8689 143.694 17.9655C143.713 18.0236 143.808 18.0109 143.976 18.1822C144.41 18.586 144.471 19.2664 144.283 19.9579C144.036 20.8603 143.712 21.3884 143.296 22.0025C142.768 22.808 142.353 23.095 142.089 22.981C141.805 22.866 141.825 22.3279 142.051 21.5614C142.391 20.3329 143.109 19.0851 143.751 18.4143C143.882 18.2596 143.995 18.2029 143.976 18.1826C143.938 18.1449 143.731 18.2406 143.598 18.3173C142.692 18.7583 141.9 19.7188 141.522 20.7933C141.05 22.2129 141.428 23.039 141.995 23.1917C142.636 23.3647 144.042 22.3289 144.637 20.812C145.424 18.8063 144.37 17.9979 144.194 17.8079Z" fill="#202020"/>
<path d="M120.486 11.3148C120.404 11.3148 120.419 11.4144 120.419 11.4801C120.419 11.5641 120.433 11.7488 120.404 11.8795C120.19 12.8327 117.338 16.6732 115.651 18.3658L115.652 18.3678L115.124 18.9119C115.126 18.9119 115.126 18.9126 115.127 18.9133C115.102 18.9386 115.078 18.9613 115.053 18.9866L114.963 19.0793L114.96 19.0766C114.071 19.9651 113.205 20.7029 112.404 21.3603C110.245 23.1072 108.916 23.9284 107.689 23.9954C107.133 24.029 106.773 23.8784 106.675 23.546C106.544 23.0806 107.035 22.6155 107.527 22.4151C107.575 22.3985 107.673 22.3478 107.657 22.3154C107.641 22.2994 107.576 22.2994 107.411 22.3478C106.659 22.5812 105.971 23.0966 106.07 23.63C106.152 24.1277 106.888 24.3148 107.657 24.2481C108.983 24.1487 110.376 23.3236 112.78 21.4927C113.479 20.9686 114.391 20.2215 115.205 19.4563L116.494 18.0668C117.601 16.7716 118.683 15.2454 119.618 13.8261C119.939 13.3391 120.318 12.6713 120.372 12.6506C120.589 12.5623 120.201 14.3652 120.044 15.04C119.805 16.0672 119.576 17.0053 119.196 18.2638L119.19 18.2815C119.145 18.4332 119.097 18.5879 119.046 18.7489C118.995 18.9133 118.944 19.0706 118.894 19.2263C118.894 19.2263 118.891 19.2263 118.889 19.2263L118.841 19.374C118.844 19.373 118.846 19.3723 118.848 19.3717C118.788 19.559 118.727 19.7417 118.668 19.9201L118.658 19.9511C118.332 20.9219 118.004 21.7917 117.557 22.8075C117.492 22.9399 117.459 23.1069 117.279 23.4563C117.213 23.5893 117.231 23.6727 117.313 23.6727C117.351 23.6727 117.422 23.638 117.498 23.5873C117.785 23.3873 118.296 22.4135 118.547 21.9074C119.061 20.8586 119.418 20.0748 119.831 18.7986C120.289 17.335 120.519 16.2865 120.78 14.84C120.828 14.6243 121.152 11.3148 120.486 11.3148Z" fill="#202020"/>
</svg>
