<svg width="14" height="7" viewBox="0 0 14 7" fill="none" xmlns="http://www.w3.org/2000/svg">
<path d="M12.2316 0.282919C12.4316 0.118642 12.6947 0.0273775 12.9684 0.0365042C13.2421 0.0365041 13.4947 0.127768 13.6947 0.301172C13.8842 0.465448 14 0.69361 14 0.930898C14 1.16819 13.9053 1.39635 13.7158 1.56975L7.75789 6.73533C7.66316 6.81747 7.54737 6.88136 7.42105 6.92699C7.29474 6.97262 7.15789 7 7.02105 7C6.88421 7 6.74737 6.97262 6.61053 6.92699C6.48421 6.88136 6.36842 6.81747 6.27368 6.73533L0.315789 1.56975C0.221052 1.48761 0.136842 1.38722 0.0842103 1.2777C0.0315787 1.15906 -2.60502e-07 1.04042 -2.65688e-07 0.921772C-2.70874e-07 0.803129 0.0210524 0.675358 0.0736839 0.56584C0.126316 0.456323 0.210526 0.355931 0.305263 0.264667C0.4 0.182528 0.526315 0.118643 0.652631 0.0730109C0.778947 0.0182518 0.915789 -1.02869e-06 1.06316 -1.04076e-06C1.2 -1.05197e-06 1.33684 0.0273784 1.46316 0.0730108C1.58947 0.118643 1.70526 0.191655 1.81053 0.28292L7.02105 4.80052L8 3.94263L12.2316 0.282919Z" fill="#007071"/>
</svg>
