<svg width="75" height="58" viewBox="0 0 75 58" fill="none" xmlns="http://www.w3.org/2000/svg">
<g opacity="0.12">
<g filter="url(#filter0_dd_4106:16296)">
<rect x="5" y="1" width="64.5818" height="48" rx="8" fill="#26B84F"/>
</g>
</g>
<path d="M38 12C30.8205 12 25 17.8202 25 25C25 32.1798 30.8205 38 38 38C45.1795 38 51 32.1798 51 25C51 17.8202 45.1795 12 38 12ZM38 35.6364C32.1258 35.6364 27.3636 30.8742 27.3636 25C27.3636 19.1258 32.1258 14.3636 38 14.3636C43.8742 14.3636 48.6364 19.1258 48.6364 25C48.6364 30.8742 43.8742 35.6364 38 35.6364Z" fill="#26B84F"/>
<path d="M42.8112 21.7999C42.3497 21.3387 41.6013 21.3387 41.1398 21.7999L36.9615 25.9786L35.2901 24.3072C34.8286 23.8457 34.0805 23.8457 33.6187 24.3072C33.1572 24.7687 33.1572 25.5171 33.6187 25.9789L36.1253 28.4852C36.5868 28.9467 37.3355 28.9467 37.797 28.4852L42.8109 23.4713C43.2727 23.0098 43.2733 22.2617 42.8112 21.7999Z" fill="#26B84F"/>
<defs>
<filter id="filter0_dd_4106:16296" x="0" y="0" width="74.5818" height="58" filterUnits="userSpaceOnUse" color-interpolation-filters="sRGB">
<feFlood flood-opacity="0" result="BackgroundImageFix"/>
<feColorMatrix in="SourceAlpha" type="matrix" values="0 0 0 0 0 0 0 0 0 0 0 0 0 0 0 0 0 0 127 0" result="hardAlpha"/>
<feMorphology radius="1" operator="erode" in="SourceAlpha" result="effect1_dropShadow_4106:16296"/>
<feOffset dy="2"/>
<feGaussianBlur stdDeviation="2"/>
<feColorMatrix type="matrix" values="0 0 0 0 0 0 0 0 0 0 0 0 0 0 0 0 0 0 0.07 0"/>
<feBlend mode="normal" in2="BackgroundImageFix" result="effect1_dropShadow_4106:16296"/>
<feColorMatrix in="SourceAlpha" type="matrix" values="0 0 0 0 0 0 0 0 0 0 0 0 0 0 0 0 0 0 127 0" result="hardAlpha"/>
<feMorphology radius="1" operator="erode" in="SourceAlpha" result="effect2_dropShadow_4106:16296"/>
<feOffset dy="4"/>
<feGaussianBlur stdDeviation="3"/>
<feColorMatrix type="matrix" values="0 0 0 0 0 0 0 0 0 0 0 0 0 0 0 0 0 0 0.12 0"/>
<feBlend mode="normal" in2="effect1_dropShadow_4106:16296" result="effect2_dropShadow_4106:16296"/>
<feBlend mode="normal" in="SourceGraphic" in2="effect2_dropShadow_4106:16296" result="shape"/>
</filter>
</defs>
</svg>
