<svg width="18" height="18" viewBox="0 0 18 18" fill="none" xmlns="http://www.w3.org/2000/svg">
<g clip-path="url(#clip0_2745:13598)">
<path d="M16.0748 17.2692C16.0748 17.6287 16.3662 17.92 16.7256 17.92C17.0866 17.92 17.3782 17.6289 17.3782 17.2692C17.3782 12.8043 13.6167 9.17722 9.00003 9.17722C4.38513 9.17722 0.623633 12.8043 0.623633 17.2692C0.623633 17.6287 0.915005 17.92 1.27443 17.92C1.63386 17.92 1.92523 17.6287 1.92523 17.2692C1.92523 13.5302 5.09499 10.4806 9.00003 10.4806C12.9051 10.4806 16.0748 13.5302 16.0748 17.2692Z" fill="white" stroke="#C2CFE0" stroke-width="0.2"/>
<path d="M3.86875 5.28119C3.86875 8.14802 6.20132 10.4806 9.06815 10.4806C11.935 10.4806 14.2676 8.14618 14.2676 5.27939C14.2676 2.41256 11.935 0.0799927 9.06815 0.0799927C6.20128 0.0799927 3.86875 2.41441 3.86875 5.28119ZM5.17035 5.28119C5.17035 3.13145 6.92015 1.38339 9.06815 1.38339C11.2162 1.38339 12.966 3.13145 12.966 5.28119C12.966 7.43096 11.2179 9.17899 9.06815 9.17899C6.91838 9.17899 5.17035 7.43096 5.17035 5.28119Z" fill="white" stroke="#C2CFE0" stroke-width="0.2"/>
</g>
<defs>
<clipPath id="clip0_2745:13598">
<rect width="18" height="18" fill="white"/>
</clipPath>
</defs>
</svg>
