<svg width="182" height="31" viewBox="0 0 182 31" fill="none" xmlns="http://www.w3.org/2000/svg">
<path d="M72.1246 17.101C69.9186 17.0777 68.6644 17.0777 66.4588 17.0777C64.7278 17.0777 63.6687 17.0777 62.0251 17.101L61.9812 16.9468C62.3497 16.7047 62.6522 16.1333 62.6522 15.4966V3.29221C62.6522 2.43458 62.4792 2.10494 61.9169 1.90783L62.0251 1.66571C62.4149 1.70988 62.8903 1.70988 63.431 1.70988C63.9716 1.70988 64.6852 1.70988 65.0746 1.66571L65.1398 1.90783C64.6209 2.14953 64.4258 2.52293 64.4258 3.16052V16.0017H69.6165C71.736 16.0017 72.3418 15.5837 73.3362 14.5944L73.5522 14.7698C72.9468 15.5187 72.3844 16.5509 72.1246 17.101Z" fill="#202020"/>
<path d="M82.7999 17.1014C82.2589 17.0572 81.6318 17.0572 81.0911 17.0572C80.4636 17.0572 79.8582 17.0572 79.2963 17.1014L79.2528 16.8805C79.8799 16.5959 80.1828 16.288 80.1828 15.5191V3.33597C80.1828 2.47917 79.9234 2.10536 79.3614 1.88574L79.4479 1.66571C79.9885 1.70988 80.5075 1.70988 81.0477 1.70988C81.5887 1.70988 82.2593 1.70988 82.7569 1.66571L82.843 1.86366C82.3019 2.08369 81.9564 2.47917 81.9564 3.18303V15.4966C81.9564 16.2663 82.2802 16.5959 82.8647 16.8801L82.7999 17.1014Z" fill="#202020"/>
<path fill-rule="evenodd" clip-rule="evenodd" d="M93.4816 17.0971C94.0508 17.1094 94.6929 17.1234 95.4154 17.1234C100.346 17.1234 103.979 14.1992 103.98 9.22966C103.98 4.56853 100.195 1.64475 95.3511 1.64475C94.8433 1.64475 94.3595 1.6542 93.846 1.66423C93.2652 1.67558 92.6464 1.68767 91.9118 1.68767C91.3924 1.68767 90.8953 1.666 89.9874 1.62183L89.9009 1.84186C90.3985 2.08356 90.6141 2.50113 90.6141 3.20457V15.4744C90.6141 16.2662 90.3546 16.6612 89.9222 16.9471L90.0087 17.1455C90.1225 17.1407 90.2293 17.1361 90.3303 17.1318C91.1498 17.0969 91.5836 17.0784 92.2573 17.0784C92.6217 17.0784 93.0286 17.0872 93.4816 17.0971ZM92.3878 2.6768C93.4043 2.63388 94.0535 2.63388 95.0914 2.63388C99.33 2.63388 102.054 5.22844 102.054 9.27448C102.054 13.6064 99.7415 16.1343 95.5668 16.1343C94.5503 16.1343 93.3826 16.1114 92.3878 16.0464V2.6768Z" fill="#202020"/>
<path d="M119.33 17.1015C117.535 17.0573 116.497 17.0573 114.702 17.0573C112.518 17.0573 111.048 17.0573 108.885 17.1235L108.799 16.9473C109.296 16.6397 109.49 16.1772 109.49 15.3645V3.27017C109.49 2.52297 109.362 2.10541 108.777 1.84162L108.842 1.62158C110.962 1.73202 111.739 1.71035 113.859 1.71035C115.806 1.71035 117.643 1.71035 119.59 1.59991C119.374 1.97289 119.07 2.63299 118.92 3.09473C118.682 2.83052 118.206 2.72092 116.799 2.72092H111.264V7.82212H113.621C115.199 7.82212 116.087 7.7792 116.584 7.49332L116.713 7.6025C116.474 7.88838 116.151 8.63558 116 9.09773C115.61 8.87811 114.789 8.83394 113.621 8.83394H111.264V16.0459H115.978C118.79 16.0459 119.632 15.5633 120.476 14.704L120.671 14.8586C120.131 15.54 119.59 16.4859 119.33 17.1015Z" fill="#202020"/>
<path fill-rule="evenodd" clip-rule="evenodd" d="M129.11 9.3173C132.008 14.9023 134.906 17.2335 138.324 17.2335C139.21 17.2335 139.664 17.1014 140.183 16.8364L140.054 16.5955C139.707 16.7489 139.404 16.7926 138.929 16.7926C136.182 16.7926 133.414 14.0005 131.317 9.1852C133.783 8.81181 135.685 7.55912 135.685 5.22792C135.685 2.80839 133.501 1.68696 130.863 1.68696C130.303 1.68696 129.7 1.69264 129.095 1.69834C128.484 1.7041 127.87 1.70988 127.294 1.70988C126.212 1.70988 125.39 1.70988 124.31 1.66571L124.245 1.86366C124.849 2.19246 125.023 2.76463 125.023 3.24845V15.4745C125.023 16.2004 124.806 16.6613 124.287 16.9031L124.374 17.1014C125.001 17.0572 125.368 17.0572 125.974 17.0572C126.102 17.0572 126.218 17.0563 126.328 17.0553C126.741 17.0519 127.071 17.0491 127.618 17.1014L127.726 16.8593C127.056 16.5734 126.795 16.2004 126.795 15.2991V9.3173H129.11ZM127.274 2.71234C128.316 2.69318 129.225 2.67648 130.43 2.67648C132.7 2.67648 133.782 3.51328 133.782 5.3819C133.782 7.40512 132.008 8.32776 129.888 8.32776C129.342 8.32776 128.824 8.32213 128.311 8.31656C127.807 8.31109 127.309 8.30568 126.795 8.30568V2.72107C126.959 2.71814 127.118 2.71521 127.274 2.71234Z" fill="#202020"/>
<path d="M0.00163953 21.6679C0.00163953 21.6679 1.97399 28.9645 56.3969 30.0584C107.254 31.081 123.098 18.2324 151.25 24.7121C151.25 24.7121 145.021 20.9111 125.523 21.3C110.85 21.5937 78.7204 26.2853 52.9236 27.1213C11.7792 28.4535 0 21.7096 0 21.7096L0.00163953 21.6679Z" fill="#006C4F"/>
<path fill-rule="evenodd" clip-rule="evenodd" d="M27.5976 1C30.0196 1 32.476 0.998333 34.6927 1.21337L23.1688 8.74286L52.466 8.76161C52.5927 9.4688 52.4349 10.1539 52.0815 10.7753L8.47498 10.7932L24.0792 1.0821C25.2293 1.02792 26.4032 1 27.5976 1Z" fill="white" stroke="white" stroke-width="0.1007"/>
<path fill-rule="evenodd" clip-rule="evenodd" d="M34.7049 1.21382C43.869 2.30024 51.6986 5.37988 52.463 8.76415L23.0306 8.7454L34.7049 1.21382ZM52.0789 10.7633C49.8467 14.6435 39.6623 17.8336 27.497 17.8336C13.7065 17.8336 2.45813 14.0492 2.45813 9.40768C2.45813 5.15828 11.8887 1.62649 24.0651 1.0614L8.33625 10.7821L52.0789 10.7633Z" fill="#006C4F"/>
<path d="M159.873 19.5122C159.69 19.7339 159.75 20.1498 159.993 20.2602C160.244 20.4294 160.522 20.0193 160.595 19.8668C161.061 18.8758 160.239 18.9821 159.873 19.5122Z" fill="#202020"/>
<path d="M176.916 19.9005C176.783 20.0818 176.538 20.196 176.226 20.1723C175.824 20.1268 175.446 19.8326 174.978 19.8085C174.532 19.7864 174.153 20.2164 173.909 20.6019C173.818 20.7607 173.818 20.829 173.864 20.829C173.93 20.874 173.998 20.7607 174.042 20.7378C174.22 20.6019 174.421 20.4206 174.756 20.4435C175.202 20.5106 175.558 20.784 176.003 20.8065C176.472 20.829 176.873 20.3752 177.051 19.9672C177.097 19.8776 177.097 19.808 177.051 19.7859C177.006 19.7643 176.939 19.8326 176.916 19.9005Z" fill="#202020"/>
<path d="M156.816 22.2638C156.816 21.8558 156.58 21.5679 156.463 21.5679C156.368 21.5679 156.509 21.7116 156.344 22.1671C155.896 23.3665 154.976 24.7117 153.82 26.1736C153.254 26.8929 152.427 27.7092 152.051 28.1643C152.286 27.7326 152.499 27.2042 152.569 27.0129C152.97 25.9815 153.513 24.5658 153.585 23.3194C153.631 22.5038 153.325 21.9738 152.735 21.9738C152.286 21.9738 151.885 22.1667 151.579 22.3359C151.296 22.5034 151.131 22.7426 151.154 22.8143C151.178 22.886 151.342 22.6943 151.602 22.5501C151.72 22.4776 151.91 22.4305 152.028 22.4305C152.428 22.4305 152.665 22.7676 152.64 23.3894C152.594 24.3729 152.31 25.526 151.933 26.7482C151.839 27.0129 151.673 27.5409 151.508 27.8526C151.321 28.1168 151.225 28.3806 151.225 28.6681C151.225 28.7394 151.273 29.0044 151.579 29.0519C151.767 29.0994 151.767 28.9807 151.862 28.8607C152.286 28.1872 153.277 27.325 154.269 26.2219C155.094 25.3097 155.849 24.4454 156.415 23.4861C156.652 23.0556 156.816 22.623 156.816 22.2638Z" fill="#202020"/>
<path d="M159.623 21.9028C159.363 22.047 158.82 22.287 158.49 22.4062C158.16 22.5033 158.16 22.5033 158.16 22.5741C158.16 22.6704 158.278 22.6462 158.42 22.6462C158.514 22.622 158.679 22.5504 158.82 22.4779C158.373 23.198 158.018 24.1339 157.593 25.1662C157.122 26.3418 156.815 27.3974 156.414 28.6917C156.272 29.0755 156.438 29.1964 156.649 29.1964C156.815 29.2201 157.027 28.908 157.523 28.3558C157.782 28.0433 158.065 27.7557 158.444 27.4686C158.703 27.2769 158.82 27.2528 158.82 27.1819C158.82 27.0844 158.679 27.1565 158.632 27.1819C158.373 27.3011 157.854 27.6595 157.476 28.0204C157.736 27.2036 158.114 26.1726 158.491 25.1658C158.868 24.2048 159.316 23.1492 159.859 22.1186C160.024 21.8303 159.93 21.7348 159.623 21.9028Z" fill="#202020"/>
<path fill-rule="evenodd" clip-rule="evenodd" d="M165.416 26.6762C165.463 26.6528 165.557 26.6058 165.581 26.6531C165.623 26.7165 165.571 26.7425 165.491 26.7823C165.482 26.7869 165.472 26.7918 165.462 26.7969C165.273 26.8931 164.802 27.2782 164.495 27.5657L164.469 27.592C164.033 28.0356 163.685 28.391 163.292 28.8847C163.103 29.1001 162.891 29.3414 162.631 29.2927C162.419 29.2677 162.394 29.0522 162.513 28.7647C162.891 27.9495 163.622 26.0543 164.141 24.6624C163.552 25.7175 162.82 26.7244 162.134 27.4449C161.498 28.1408 160.931 28.5492 160.531 28.5246C160.035 28.5009 159.823 28.0929 159.823 27.4695C159.823 26.9644 159.988 26.2926 160.295 25.6217C160.649 24.8299 161.263 23.991 161.993 23.3409C162.725 22.6225 163.575 22.1191 164.259 22.1428C164.73 22.167 164.896 22.5037 164.919 22.7187C164.989 22.5746 165.108 22.3595 165.18 22.2637C165.32 22.0711 165.415 21.974 165.652 22.0236C165.887 22.0711 165.934 22.2637 165.887 22.3829C165.816 22.5631 165.736 22.7643 165.651 22.981C165.337 23.7742 164.942 24.7756 164.589 25.7175C164.235 26.6764 163.717 27.7812 163.316 28.5242C163.668 28.0687 164.329 27.3974 164.589 27.204C164.872 26.9636 165.203 26.7481 165.415 26.6764L165.416 26.6762ZM160.79 28.0919C161.474 28.1402 162.937 26.2695 163.858 24.7326C164.235 24.1338 164.519 23.4387 164.637 23.102C164.802 22.646 164.566 22.3823 164.212 22.3823C163.15 22.3823 161.852 24.2305 160.956 26.292C160.743 26.7725 160.556 27.3247 160.556 27.7318C160.556 27.9244 160.601 28.0919 160.79 28.0919Z" fill="#202020"/>
<path d="M170.341 21.8069C169.044 21.8315 167.651 23.3905 166.756 25.2145C166.355 26.055 166.142 27.0135 166.166 27.5419C166.166 28.1883 166.472 28.6692 167.061 28.7655C167.015 28.8617 166.921 28.9326 166.826 29.053C166.731 29.1726 166.589 29.3168 166.661 29.3639C166.708 29.4618 166.78 29.4131 167.062 29.4618C167.417 29.5081 167.581 29.7735 167.558 30.0119C167.487 30.3953 167.108 30.5886 166.662 30.5886C166.071 30.5886 165.599 30.3732 165.434 30.1803C165.387 30.1323 165.34 30.109 165.318 30.1323C165.27 30.1803 165.293 30.2523 165.34 30.3249C165.482 30.5891 165.955 30.9479 166.685 30.9962C167.605 31.0441 168.266 30.6362 168.289 30.0123C168.337 29.5085 167.888 29.2209 167.274 29.1497C167.157 29.1255 167.132 29.0768 167.181 29.0055C167.227 28.9567 167.321 28.8371 167.392 28.7655C167.842 28.7184 168.326 28.3712 168.762 27.9028C169.561 27.0394 170.092 25.8104 169.909 25.7825C169.835 25.77 169.349 26.946 168.597 27.7336C168.129 28.2204 167.629 28.55 167.299 28.4308C167.133 28.3575 167.038 28.1887 167.038 27.8541C167.038 27.5665 167.132 27.1098 167.251 26.6072C167.842 24.4219 169.398 21.8794 170.318 22.0248C170.555 22.0486 170.507 22.4557 170.389 22.6724C170.366 22.7691 170.296 22.865 170.366 22.9129C170.414 23.0092 170.531 22.9129 170.625 22.865C170.838 22.7199 171.026 22.5053 171.003 22.2161C170.978 21.9744 170.79 21.8069 170.341 21.8069Z" fill="#202020"/>
<path fill-rule="evenodd" clip-rule="evenodd" d="M175.747 22.2637C175.889 22.0711 175.983 21.974 176.219 22.0236C176.456 22.0711 176.502 22.2637 176.456 22.3837C176.398 22.5305 176.334 22.6912 176.266 22.863C175.945 23.6735 175.527 24.7287 175.157 25.7184C174.803 26.6773 174.284 27.782 173.884 28.5251C174.236 28.0696 174.898 27.3982 175.157 27.2048C175.441 26.9644 175.771 26.7489 175.983 26.6773L175.986 26.6761C176.034 26.6524 176.125 26.6072 176.148 26.6539C176.19 26.7175 176.138 26.7435 176.058 26.7828C176.049 26.7873 176.04 26.792 176.031 26.7969C175.842 26.8931 175.37 27.2782 175.062 27.5657C175.045 27.5827 175.029 27.5995 175.012 27.6162C174.589 28.0486 174.245 28.4 173.859 28.8847C173.67 29.1001 173.457 29.3414 173.2 29.2927C172.986 29.2677 172.962 29.0522 173.08 28.7647C173.457 27.9495 174.189 26.0543 174.71 24.6624C174.12 25.7175 173.388 26.7244 172.704 27.4449C172.065 28.1408 171.5 28.5492 171.098 28.5246C170.602 28.5009 170.391 28.0929 170.391 27.4695C170.391 26.9644 170.556 26.2926 170.864 25.6217C171.216 24.8299 171.831 23.991 172.562 23.3409C173.293 22.6225 174.143 22.1191 174.827 22.1428C175.298 22.167 175.464 22.5037 175.488 22.7187C175.558 22.5746 175.676 22.3595 175.747 22.2637ZM174.426 24.7326C174.803 24.1338 175.087 23.4387 175.205 23.102C175.37 22.646 175.132 22.3823 174.779 22.3823C173.719 22.3823 172.42 24.2305 171.523 26.292C171.312 26.7725 171.122 27.3247 171.122 27.7318C171.122 27.9244 171.171 28.0919 171.358 28.0919C172.043 28.1402 173.506 26.2695 174.426 24.7326Z" fill="#202020"/>
<path d="M180.242 22.0098C180.044 21.8622 179.972 21.7497 179.781 21.846C179.618 21.9177 179.57 22.086 179.618 22.2069C179.642 22.2794 179.76 22.2635 179.97 22.4777C180.513 22.9824 180.588 23.833 180.353 24.6973C180.045 25.8253 179.64 26.4854 179.12 27.2531C178.46 28.2599 177.941 28.6187 177.611 28.4762C177.256 28.3324 177.281 27.6598 177.564 26.7017C177.989 25.1661 178.886 23.6063 179.688 22.7678C179.852 22.5744 179.994 22.5036 179.97 22.4782C179.923 22.4311 179.664 22.5507 179.498 22.6465C178.364 23.1979 177.375 24.3985 176.902 25.7416C176.313 27.516 176.784 28.5487 177.493 28.7395C178.295 28.9558 180.052 27.661 180.797 25.7649C181.78 23.2579 180.462 22.2473 180.242 22.0098Z" fill="#202020"/>
<path d="M150.607 13.8934C150.505 13.8934 150.523 14.018 150.523 14.1001C150.523 14.2051 150.541 14.436 150.505 14.5994C150.237 15.7908 146.673 20.5915 144.564 22.7073L144.565 22.7098L143.905 23.3899C143.907 23.3899 143.908 23.3907 143.909 23.3916C143.878 23.4232 143.847 23.4516 143.816 23.4832L143.703 23.5991L143.701 23.5958C142.589 24.7063 141.506 25.6286 140.505 26.4504C137.806 28.634 136.145 29.6604 134.612 29.7442C133.917 29.7863 133.466 29.5979 133.343 29.1824C133.18 28.6007 133.793 28.0194 134.409 27.7689C134.469 27.7481 134.591 27.6847 134.571 27.6443C134.551 27.6243 134.47 27.6243 134.264 27.6847C133.323 27.9764 132.464 28.6207 132.587 29.2875C132.689 29.9096 133.61 30.1434 134.571 30.0601C136.229 29.9359 137.97 28.9045 140.974 26.6158C141.849 25.9607 142.988 25.0268 144.007 24.0704L145.617 22.3335C147.001 20.7145 148.354 18.8067 149.522 17.0327C149.924 16.4238 150.397 15.5891 150.465 15.5633C150.736 15.4528 150.251 17.7065 150.055 18.55C149.756 19.8339 149.47 21.0066 148.995 22.5798L148.988 22.6019C148.931 22.7915 148.871 22.9848 148.808 23.1861C148.744 23.3916 148.68 23.5883 148.618 23.7829C148.617 23.7829 148.613 23.7829 148.612 23.7829L148.551 23.9675C148.556 23.9662 148.557 23.9654 148.56 23.9646C148.485 24.1988 148.409 24.4271 148.335 24.6501L148.322 24.6888C147.915 25.9024 147.505 26.9896 146.947 28.2594C146.865 28.4248 146.823 28.6336 146.599 29.0703C146.516 29.2366 146.538 29.3408 146.641 29.3408C146.688 29.3408 146.778 29.2975 146.872 29.2341C147.232 28.9841 147.869 27.7668 148.183 27.1342C148.826 25.8232 149.272 24.8434 149.789 23.2482C150.361 21.4188 150.648 20.1081 150.975 18.2999C151.035 18.0303 151.44 13.8934 150.607 13.8934Z" fill="#202020"/>
</svg>
