<svg width="17" height="17" viewBox="0 0 17 17" fill="none" xmlns="http://www.w3.org/2000/svg">
<path d="M15.5684 2.44952H1.43158C0.640942 2.44952 0 3.09047 0 3.88111C0 4.67175 0.640942 5.31269 1.43158 5.31269H15.5684C16.3591 5.31269 17 4.67175 17 3.88111C17 3.09047 16.3591 2.44952 15.5684 2.44952Z" fill="#007071"/>
<path d="M15.5684 7.03461H1.43158C0.640941 7.03461 0 7.67555 0 8.46619C0 9.25683 0.640942 9.89777 1.43158 9.89777H15.5684C16.3591 9.89777 17 9.25683 17 8.46619C17 7.67555 16.3591 7.03461 15.5684 7.03461Z" fill="#007071"/>
<path d="M15.5684 11.6872H1.43158C0.640941 11.6872 0 12.3281 0 13.1188C0 13.9094 0.640942 14.5504 1.43158 14.5504H15.5684C16.3591 14.5504 17 13.9094 17 13.1188C17 12.3281 16.3591 11.6872 15.5684 11.6872Z" fill="#007071"/>
</svg>
