<svg width="22" height="21" viewBox="0 0 22 21" fill="none" xmlns="http://www.w3.org/2000/svg">
<path d="M17.7224 14.8492L15.166 14.2381L12.3162 11.3884L14.5118 9.19563C15.0217 9.37459 15.5518 9.46204 16.0793 9.46199C17.3135 9.46191 18.5327 8.98316 19.4393 8.07815C20.8432 6.67691 21.2236 4.52862 20.3861 2.73251L19.9977 1.8997L17.6868 4.20526L16.6137 3.13408L18.9252 0.827914L18.0887 0.439143C16.2904 -0.396464 14.1394 -0.0167561 12.7362 1.38388C11.4421 2.67569 11.0178 4.60258 11.6156 6.30295L10.7519 7.16562L4.38634 0.800641C3.91094 0.323654 3.27784 0.0605513 2.60359 0.0597783H2.60071C1.92659 0.0597783 1.29293 0.321936 0.816068 0.798279C0.338694 1.27565 0.076021 1.91009 0.0763646 2.58477C0.0767082 3.25893 0.339596 3.89281 0.816497 4.36941L7.18014 10.7328L6.31452 11.5973C4.61152 10.9996 2.6812 11.4229 1.3869 12.7148C-0.0168768 14.1161 -0.397358 16.2643 0.440225 18.0604L0.828566 18.8932L3.13946 16.5877L4.21257 17.6589L1.90099 19.9651L2.73763 20.3538C3.37387 20.6494 4.05409 20.7929 4.72993 20.7929C5.96418 20.7929 7.18332 20.3141 8.09001 19.4091C9.38414 18.1172 9.80851 16.1904 9.21067 14.49L11.4046 12.2988L14.2549 15.1492L14.866 17.7056L18.1604 21L21.0168 18.1436L17.7224 14.8492ZM12.9572 6.18455C12.3481 4.87809 12.6252 3.31528 13.6465 2.29577C14.4316 1.51213 15.5378 1.16716 16.6025 1.32513L14.7896 3.13382L17.6866 6.02546L19.5007 4.21553C19.6595 5.27799 19.3142 6.38254 18.5291 7.16618C17.5069 8.18659 15.9398 8.4631 14.6297 7.85421L14.2215 7.66451L12.7353 9.14877L11.663 8.07656L13.1478 6.59359L12.9572 6.18455ZM1.36482 2.58408C1.36465 2.25381 1.49332 1.94316 1.72688 1.70956C1.96022 1.47652 2.27048 1.34819 2.60075 1.34819C2.93193 1.34858 3.24146 1.47712 3.47454 1.71094L11.8237 10.0593L10.0752 11.8055L1.72744 3.45817C1.4938 3.22466 1.36499 2.91423 1.36482 2.58408ZM7.17976 18.4972C6.39466 19.2808 5.28839 19.6258 4.22374 19.4678L6.03664 17.6592L3.13971 14.7675L1.32557 16.5774C1.16674 15.515 1.51209 14.4104 2.29719 13.6268C3.31941 12.6064 4.88648 12.3298 6.19658 12.9387L6.6048 13.1284L8.09121 11.6439L9.16351 12.7161L7.67843 14.1993L7.86912 14.6084C8.47818 15.9148 8.20112 17.4776 7.17976 18.4972ZM16.0345 17.052L15.7096 15.6928L17.0688 16.0177L19.1947 18.1436L18.1604 19.1779L16.0345 17.052Z" fill="white"/>
</svg>
