<svg width="75" height="58" viewBox="0 0 75 58" fill="none" xmlns="http://www.w3.org/2000/svg">
<g opacity="0.22">
<g filter="url(#filter0_dd_4106:16293)">
<rect x="5.3999" y="1" width="64.5818" height="48" rx="8" fill="#F8D419"/>
</g>
</g>
<path fill-rule="evenodd" clip-rule="evenodd" d="M32.9307 13.3012L31.3292 11.3815L25.5701 16.186L27.1714 18.1057L32.9307 13.3012ZM44.6707 11.3822L50.4299 16.1867L48.8284 18.1065L43.0692 13.302L44.6707 11.3822ZM36.1751 27.281L33.5126 24.6185L32.1876 25.9435L36.1626 29.9185L43.6626 22.4185L42.3376 21.0935L36.1751 27.281ZM38.0001 14.1185C31.7876 14.1185 26.7501 19.156 26.7501 25.3685C26.7501 31.581 31.7876 36.6185 38.0001 36.6185C44.2126 36.6185 49.2501 31.581 49.2501 25.3685C49.2501 19.156 44.2126 14.1185 38.0001 14.1185ZM29.2501 25.3685C29.2501 30.1935 33.1751 34.1185 38.0001 34.1185C42.8251 34.1185 46.7501 30.1935 46.7501 25.3685C46.7501 20.5435 42.8251 16.6185 38.0001 16.6185C33.1751 16.6185 29.2501 20.5435 29.2501 25.3685Z" fill="#F8D419"/>
<defs>
<filter id="filter0_dd_4106:16293" x="0.399902" y="0" width="74.5818" height="58" filterUnits="userSpaceOnUse" color-interpolation-filters="sRGB">
<feFlood flood-opacity="0" result="BackgroundImageFix"/>
<feColorMatrix in="SourceAlpha" type="matrix" values="0 0 0 0 0 0 0 0 0 0 0 0 0 0 0 0 0 0 127 0" result="hardAlpha"/>
<feMorphology radius="1" operator="erode" in="SourceAlpha" result="effect1_dropShadow_4106:16293"/>
<feOffset dy="2"/>
<feGaussianBlur stdDeviation="2"/>
<feColorMatrix type="matrix" values="0 0 0 0 0 0 0 0 0 0 0 0 0 0 0 0 0 0 0.07 0"/>
<feBlend mode="normal" in2="BackgroundImageFix" result="effect1_dropShadow_4106:16293"/>
<feColorMatrix in="SourceAlpha" type="matrix" values="0 0 0 0 0 0 0 0 0 0 0 0 0 0 0 0 0 0 127 0" result="hardAlpha"/>
<feMorphology radius="1" operator="erode" in="SourceAlpha" result="effect2_dropShadow_4106:16293"/>
<feOffset dy="4"/>
<feGaussianBlur stdDeviation="3"/>
<feColorMatrix type="matrix" values="0 0 0 0 0 0 0 0 0 0 0 0 0 0 0 0 0 0 0.12 0"/>
<feBlend mode="normal" in2="effect1_dropShadow_4106:16293" result="effect2_dropShadow_4106:16293"/>
<feBlend mode="normal" in="SourceGraphic" in2="effect2_dropShadow_4106:16293" result="shape"/>
</filter>
</defs>
</svg>
