<svg width="4" height="13" viewBox="0 0 4 13" fill="none" xmlns="http://www.w3.org/2000/svg">
<path d="M1.99984 9.66671C1.08317 9.66671 0.333171 10.3792 0.333171 11.25C0.333171 12.1209 1.08317 12.8334 1.99984 12.8334C2.9165 12.8334 3.6665 12.1209 3.6665 11.25C3.6665 10.3792 2.9165 9.66671 1.99984 9.66671ZM1.99984 8.08337C2.9165 8.08337 3.6665 7.37088 3.6665 6.50004C3.6665 5.62921 2.9165 4.91671 1.99984 4.91671C1.08317 4.91671 0.333171 5.62921 0.333171 6.50004C0.333171 7.37088 1.08317 8.08337 1.99984 8.08337ZM1.99984 3.33338C2.9165 3.33338 3.6665 2.62088 3.6665 1.75004C3.6665 0.87921 2.9165 0.16671 1.99984 0.16671C1.08317 0.16671 0.333172 0.879209 0.333172 1.75004C0.333172 2.62088 1.08317 3.33338 1.99984 3.33338Z" fill="#BEBEB5"/>
</svg>
