<svg width="19" height="19" viewBox="0 0 19 19" fill="none" xmlns="http://www.w3.org/2000/svg">
<g clip-path="url(#clip0_2737:14451)">
<path fill-rule="evenodd" clip-rule="evenodd" d="M11.3617 2.44922C11.9817 2.63532 12.574 2.90365 13.1228 3.24707L14.0706 2.2946C14.2908 2.07554 14.5888 1.95257 14.8994 1.95257C15.21 1.95257 15.508 2.07554 15.7282 2.2946L16.6992 3.27026C16.9183 3.49046 17.0412 3.78844 17.0412 4.09904C17.0412 4.40964 16.9183 4.70761 16.6992 4.92782L15.6787 5.94832C15.9729 6.48107 16.1984 7.04893 16.3498 7.63835H17.8218C17.9764 7.63794 18.1295 7.66804 18.2724 7.72691C18.4154 7.78578 18.5453 7.87228 18.6547 7.98144C18.7642 8.0906 18.851 8.22028 18.9103 8.36306C18.9695 8.50583 19 8.6589 19 8.81348V10.1896C18.9992 10.5002 18.8754 10.7978 18.6558 11.0175C18.4362 11.2371 18.1386 11.3608 17.828 11.3617H16.342C16.1873 11.9448 15.9603 12.5063 15.6663 13.0331L16.6992 14.0706C16.9183 14.2908 17.0412 14.5888 17.0412 14.8994C17.0412 15.21 16.9183 15.508 16.6992 15.7282L15.7297 16.6992C15.5093 16.9184 15.211 17.0414 14.9002 17.0414C14.5893 17.0414 14.2911 16.9184 14.0706 16.6992L13.0903 15.7174C12.5496 16.0491 11.968 16.309 11.3601 16.4905V17.8187C11.3593 18.1293 11.2355 18.4269 11.0159 18.6465C10.7963 18.8662 10.4987 18.9899 10.1881 18.9907H8.81348C8.50288 18.9899 8.20525 18.8662 7.98562 18.6465C7.766 18.4269 7.64226 18.1293 7.64144 17.8187V16.6188C6.97425 16.4679 6.33149 16.2243 5.73185 15.8952L4.92782 16.6992C4.70722 16.9175 4.4094 17.04 4.09904 17.04C3.78868 17.04 3.49086 16.9175 3.27026 16.6992L2.2946 15.7236C2.07591 15.5032 1.9532 15.2053 1.9532 14.8948C1.9532 14.5843 2.07591 14.2864 2.2946 14.066L3.02441 13.3362C2.64214 12.7239 2.35245 12.0586 2.16471 11.3617H1.17204C0.861445 11.3608 0.563807 11.2371 0.344184 11.0175C0.124561 10.7978 0.00081628 10.5002 0 10.1896L0 8.81348C-1.07731e-06 8.50235 0.123382 8.20392 0.343094 7.98363C0.562805 7.76333 0.86091 7.63916 1.17204 7.63835H2.15389C2.33636 6.9326 2.62354 6.25818 3.00586 5.63753L2.2946 4.92782C2.07629 4.70722 1.95383 4.4094 1.95383 4.09904C1.95383 3.78868 2.07629 3.49086 2.2946 3.27026L3.27026 2.2946C3.49047 2.07554 3.78844 1.95257 4.09904 1.95257C4.40964 1.95257 4.70762 2.07554 4.92782 2.2946L5.70093 3.06771C6.3072 2.726 6.95979 2.47392 7.63835 2.31934V1.17204C7.63917 0.86091 7.76334 0.562805 7.98363 0.343094C8.20392 0.123382 8.50235 -1.07731e-06 8.81348 0L10.1896 0C10.5002 0.00081628 10.7978 0.124561 11.0175 0.344184C11.2371 0.563807 11.3608 0.861445 11.3617 1.17204V2.44922ZM9.2557 5.67155C10.0081 5.67155 10.7435 5.89467 11.3691 6.3127C11.9946 6.73072 12.4822 7.32487 12.77 8.02C13.0579 8.71513 13.1331 9.48001 12.9862 10.2179C12.8393 10.9558 12.4769 11.6335 11.9448 12.1654C11.4127 12.6973 10.7348 13.0595 9.99682 13.2061C9.25887 13.3527 8.49402 13.2771 7.79901 12.989C7.104 12.7009 6.51005 12.2131 6.09228 11.5874C5.6745 10.9616 5.45168 10.2261 5.45199 9.47371C5.45199 8.97428 5.55038 8.47973 5.74156 8.01833C5.93273 7.55693 6.21293 7.13771 6.56616 6.78463C6.91939 6.43155 7.33872 6.15151 7.8002 5.96053C8.26167 5.76954 8.75626 5.67135 9.2557 5.67155Z" fill="white"/>
</g>
<defs>
<clipPath id="clip0_2737:14451">
<rect width="19" height="19" fill="white"/>
</clipPath>
</defs>
</svg>
