<svg width="7" height="7" viewBox="0 0 7 7" fill="none" xmlns="http://www.w3.org/2000/svg">
<path d="M6.25033 3.5V3.49943H6.25146C6.25146 2.74121 5.94271 2.05363 5.44425 1.55518C4.9458 1.05729 4.25879 0.748535 3.50171 0.748535V0.749674H3.5H3.49943V0.748535C2.74178 0.748535 2.05363 1.05729 1.55518 1.55575C1.05729 2.0542 0.748535 2.74121 0.748535 3.49886H0.749674V3.50057V3.50114H0.748535C0.748535 4.007 0.885824 4.4821 1.12394 4.88883C1.60132 5.70402 2.48657 6.25147 3.49829 6.25203V6.2509H3.5H3.50057V6.25203C4.25879 6.25203 4.94637 5.94328 5.44482 5.44482C5.52686 5.36279 5.60319 5.27677 5.67269 5.18734C6.03442 4.72135 6.25033 4.13574 6.25033 3.5ZM2.27352 4.9082V2.00407H3.76945C4.04688 2.00407 4.25879 2.02799 4.40519 2.07585C4.55217 2.12313 4.67008 2.21086 4.76009 2.34017C4.8501 2.46891 4.89453 2.62557 4.89453 2.81014C4.89453 2.97192 4.85978 3.11035 4.79199 3.22713C4.72306 3.34391 4.6285 3.43848 4.5083 3.51196C4.4314 3.55811 4.32658 3.59627 4.19328 3.6259C4.30037 3.66178 4.37785 3.69767 4.42741 3.73356C4.45988 3.75749 4.50773 3.80819 4.57096 3.88566C4.63363 3.96427 4.67578 4.02352 4.69686 4.06624L5.13094 4.9082H4.11637L3.63672 4.0201C3.57577 3.90617 3.52165 3.83097 3.4738 3.79622C3.40942 3.75179 3.33594 3.729 3.25391 3.729H3.17472V4.90763H2.27352V4.9082ZM3.17529 3.18042H3.55412C3.59456 3.18042 3.67375 3.16732 3.79167 3.14111C3.85091 3.12915 3.8999 3.09839 3.9375 3.04997C3.97453 3.00155 3.9939 2.94515 3.9939 2.88192C3.9939 2.78792 3.96427 2.71615 3.90446 2.66602C3.84465 2.61532 3.73356 2.59025 3.5695 2.59025H3.17529V3.18042ZM6.99829 3.49943H7V3.5C7 4.30835 6.72542 5.05347 6.264 5.64648C6.17342 5.7627 6.07658 5.87264 5.97461 5.97461C5.34229 6.60693 4.46785 6.99829 3.50057 6.99886V7.00057H3.5H3.49829V6.99886C2.21143 6.99829 1.08634 6.30273 0.479655 5.26709C0.176025 4.7487 0.00170898 4.14486 0.00170898 3.50114H0V3.50057V3.49886H0.00170898C0.00170898 2.53158 0.393066 1.65715 1.02539 1.02539C1.65715 0.393066 2.53215 0.00170898 3.49943 0.00170898V0H3.5H3.50171V0.00170898C4.46842 0.00227865 5.34285 0.393066 5.97461 1.02539C6.60693 1.65715 6.99829 2.53215 6.99829 3.49943Z" fill="#747478"/>
</svg>
