<svg width="4" height="13" viewBox="0 0 4 13" fill="none" xmlns="http://www.w3.org/2000/svg">
<path d="M1.99996 9.66671C1.08329 9.66671 0.333293 10.3792 0.333293 11.25C0.333293 12.1209 1.08329 12.8334 1.99996 12.8334C2.91663 12.8334 3.66663 12.1209 3.66663 11.25C3.66663 10.3792 2.91663 9.66671 1.99996 9.66671ZM1.99996 8.08337C2.91663 8.08337 3.66663 7.37088 3.66663 6.50004C3.66663 5.62921 2.91663 4.91671 1.99996 4.91671C1.08329 4.91671 0.333293 5.62921 0.333293 6.50004C0.333293 7.37088 1.08329 8.08337 1.99996 8.08337ZM1.99996 3.33338C2.91663 3.33338 3.66663 2.62088 3.66663 1.75004C3.66663 0.87921 2.91663 0.16671 1.99996 0.16671C1.08329 0.16671 0.333294 0.879209 0.333294 1.75004C0.333294 2.62088 1.08329 3.33338 1.99996 3.33338Z" fill="#BEBEB5"/>
</svg>
